<svg width="336" height="335" xmlns="http://www.w3.org/2000/svg" xmlns:xlink="http://www.w3.org/1999/xlink" overflow="hidden"><g transform="translate(-607 -330)"><path d="M610.612 379.472C610.612 353.699 631.509 332.803 657.281 332.803L843.943 332.803C869.722 332.803 890.612 353.699 890.612 379.472L890.612 566.135C890.612 591.913 869.722 612.803 843.943 612.803L657.281 612.803C631.509 612.803 610.612 591.913 610.612 566.135Z" stroke="#BFBFBF" stroke-width="6" stroke-miterlimit="8" stroke-opacity="0.501961" fill-rule="evenodd"/><path d="M659.613 428.472C659.613 402.699 680.436 381.803 706.116 381.803L892.112 381.803C917.798 381.803 938.614 402.699 938.614 428.472L938.614 615.135C938.614 640.907 917.798 661.803 892.112 661.803L706.116 661.803C680.436 661.803 659.613 640.907 659.613 615.135Z" stroke="#BFBFBF" stroke-width="6" stroke-miterlimit="8" stroke-opacity="0.501961" fill="#FFFFFF" fill-rule="evenodd"/><text font-family="SF Pro Display,SF Pro Display_MSFontService,sans-serif" font-weight="400" font-size="53" transform="translate(679.682 469)">Auto</text><text font-family="SF Pro Display,SF Pro Display_MSFontService,sans-serif" font-weight="400" font-size="53" transform="translate(679.682 536)">Wallpaper</text></g></svg>